<svg width="18" height="18" viewBox="0 0 18 18" fill="none" xmlns="http://www.w3.org/2000/svg">
<g id="etherscan-logo-circle 1" clip-path="url(#clip0_1_297)">
<path id="Vector" d="M3.77416 8.54855C3.77417 8.44916 3.79383 8.35076 3.83198 8.25897C3.87013 8.1672 3.92603 8.08387 3.99648 8.01376C4.06694 7.94365 4.15053 7.88814 4.24249 7.85043C4.33445 7.81272 4.43296 7.79355 4.53235 7.79401L5.78943 7.79811C5.98984 7.79811 6.18206 7.87774 6.32378 8.01945C6.46551 8.16117 6.54513 8.35339 6.54513 8.55382V13.307C6.68664 13.265 6.8684 13.2202 7.06728 13.1734C7.20543 13.1409 7.32854 13.0628 7.41667 12.9515C7.50478 12.8403 7.55272 12.7026 7.55269 12.5606V6.66455C7.55269 6.46411 7.6323 6.27187 7.77402 6.13013C7.91574 5.98838 8.10796 5.90874 8.3084 5.9087H9.56796C9.76839 5.90874 9.96061 5.98838 10.1023 6.13013C10.244 6.27187 10.3237 6.46411 10.3237 6.66455V12.1367C10.3237 12.1367 10.639 12.0091 10.9462 11.8794C11.0603 11.8312 11.1577 11.7504 11.2262 11.6471C11.2947 11.5439 11.3313 11.4228 11.3314 11.2989V4.77528C11.3314 4.57488 11.411 4.38268 11.5527 4.24096C11.6943 4.09924 11.8865 4.01962 12.0869 4.01958H13.3465C13.5469 4.01958 13.7391 4.09919 13.8809 4.24092C14.0226 4.38263 14.1022 4.57485 14.1022 4.77528V10.1473C15.1942 9.35592 16.3008 8.40411 17.179 7.25958C17.3065 7.09345 17.3908 6.89836 17.4244 6.69174C17.4581 6.48512 17.4401 6.27337 17.3721 6.07538C16.9655 4.90579 16.3194 3.83393 15.4749 2.9284C14.6304 2.02288 13.6061 1.30362 12.4676 0.816662C11.3292 0.329708 10.1016 0.0857768 8.86349 0.100481C7.62535 0.115185 6.40393 0.3882 5.27738 0.902054C4.15081 1.41591 3.14392 2.15928 2.32115 3.08461C1.49837 4.00993 0.877828 5.09684 0.499227 6.27577C0.120626 7.45468 -0.00769425 8.69965 0.122476 9.93101C0.252647 11.1624 0.638444 12.353 1.25518 13.4267C1.36261 13.6119 1.52067 13.7626 1.71079 13.8611C1.9009 13.9596 2.11517 14.0018 2.32845 13.9828C2.56669 13.9619 2.86333 13.9322 3.21601 13.8907C3.36954 13.8733 3.51128 13.8 3.61424 13.6848C3.7172 13.5696 3.77417 13.4205 3.7743 13.266L3.77416 8.54855Z" fill="#21325B"/>
<path id="Vector_2" d="M3.74664 16.1722C5.0743 17.1381 6.6433 17.7179 8.28002 17.8474C9.91676 17.9768 11.5574 17.651 13.0204 16.9058C14.4835 16.1607 15.7118 15.0253 16.5697 13.6254C17.4274 12.2255 17.8812 10.6155 17.8807 8.97364C17.8807 8.76876 17.8712 8.56608 17.8576 8.36456C14.606 13.214 8.6024 15.4812 3.74692 16.1715" fill="#979695"/>
</g>
<defs>
<clipPath id="clip0_1_297">
<rect width="18" height="18" fill="white"/>
</clipPath>
</defs>
</svg>
