<svg width="46" height="56" viewBox="0 0 46 56" fill="none" xmlns="http://www.w3.org/2000/svg">
<rect x="0.5" y="0.537109" width="45" height="45" rx="9.5" fill="url(#paint0_linear_545_163)"/>
<g clip-path="url(#clip0_545_163)">
<path d="M37.8842 7.25415C36.7645 6.95314 35.6909 7.8858 35.2091 8.87468C34.723 9.73091 34.6599 11.0445 35.5292 11.6306C36.325 12.0315 37.2889 11.5168 37.8518 10.8844C38.5374 10.0852 39.037 8.85304 38.5394 7.85321C38.3986 7.58208 38.1679 7.35978 37.8842 7.25415ZM33.4977 5.57009C32.5812 5.28111 31.7139 6.13527 31.4461 6.99091C31.0129 8.10511 31.1273 9.59696 32.1354 10.3022C32.9297 10.7212 33.8322 10.0605 34.1891 9.3114C34.7622 8.17564 34.8064 6.54189 33.7658 5.71749C33.684 5.65569 33.5937 5.60531 33.4977 5.57009ZM39.2404 11.9785C38.0104 11.5919 36.7492 12.5659 36.2406 13.6963C35.8803 14.421 35.9906 15.5559 36.8266 15.8277C38.0974 16.1822 39.3718 15.1147 39.81 13.9217C40.0719 13.2387 39.9487 12.2923 39.2404 11.9785ZM27.7384 9.21389C27.1218 10.4454 27.4424 12.2411 28.707 12.8357C29.5136 13.095 30.2463 12.3293 30.4427 11.5715C30.7936 10.4776 30.514 9.10402 29.645 8.59431C28.776 8.08461 27.9925 8.53057 27.7384 9.21389ZM33.4611 12.7434C32.2444 12.264 30.8178 12.6179 29.7971 13.4576C28.9805 14.0637 28.2126 14.812 27.7543 15.7413C27.4775 16.4885 27.9395 17.385 28.7064 17.5185C29.7689 17.7882 30.9502 17.4447 31.9487 17.993C32.7943 18.4091 33.2458 19.372 34.1313 19.7119C34.9746 20.0836 35.8576 19.2985 35.836 18.4007C35.9211 17.1612 35.6196 15.9342 35.2304 14.7824C34.8993 13.9159 34.353 13.0647 33.4611 12.7434Z" fill="#C4D7F7"/>
</g>
<g clip-path="url(#clip1_545_163)">
<path d="M23 25.0371C18.875 25.0371 15.5 28.4121 15.5 32.5371C15.5 36.6621 18.875 40.0371 23 40.0371C27.125 40.0371 30.5 36.6621 30.5 32.5371C30.5 28.4121 27.125 25.0371 23 25.0371ZM19.25 43.0746V55.0371L23 51.2871L26.75 55.0371V43.0746C25.5875 43.4871 24.3125 43.7871 23 43.7871C21.6875 43.7871 20.4125 43.4871 19.25 43.0746Z" fill="#F4BB28"/>
</g>
<rect x="0.5" y="0.537109" width="45" height="45" rx="9.5" stroke="url(#paint1_linear_545_163)" style="mix-blend-mode:multiply"/>
<defs>
<linearGradient id="paint0_linear_545_163" x1="23" y1="0.0371094" x2="23" y2="46.0371" gradientUnits="userSpaceOnUse">
<stop stop-color="white"/>
<stop offset="1" stop-color="#CBDAF4"/>
</linearGradient>
<linearGradient id="paint1_linear_545_163" x1="23" y1="0.0371094" x2="23" y2="46.0371" gradientUnits="userSpaceOnUse">
<stop stop-color="#9ABFFF"/>
<stop offset="1" stop-color="white" stop-opacity="0"/>
</linearGradient>
<clipPath id="clip0_545_163">
<rect width="12.9665" height="12.9665" fill="white" transform="translate(29.7812 4.03711) rotate(21.639)"/>
</clipPath>
<clipPath id="clip1_545_163">
<rect width="30" height="30" fill="white" transform="translate(8 25.0371)"/>
</clipPath>
</defs>
</svg>
