<svg width="56" height="56" viewBox="0 0 56 56" fill="none" xmlns="http://www.w3.org/2000/svg">
<path fill-rule="evenodd" clip-rule="evenodd" d="M20.6272 7.01289C21.5867 7.12919 22.2702 8.00128 22.154 8.96076L21.2603 16.3335H37.568L38.5127 8.5396C38.629 7.58012 39.5011 6.89659 40.4606 7.01289C41.4201 7.12919 42.1036 8.00128 41.9873 8.96076L41.0936 16.3335H47.25C48.2165 16.3335 49 17.117 49 18.0835C49 19.05 48.2165 19.8335 47.25 19.8335H40.6694L38.6896 36.1668H47.25C48.2165 36.1668 49 36.9503 49 37.9168C49 38.8833 48.2165 39.6668 47.25 39.6668H38.2653L37.3206 47.4608C37.2043 48.4202 36.3322 49.1038 35.3728 48.9875C34.4133 48.8712 33.7297 47.9991 33.846 47.0396L34.7397 39.6668H18.432L17.4873 47.4608C17.371 48.4202 16.4989 49.1038 15.5394 48.9875C14.5799 48.8712 13.8964 47.9991 14.0127 47.0396L14.9064 39.6668H8.75C7.7835 39.6668 7 38.8833 7 37.9168C7 36.9503 7.7835 36.1668 8.75 36.1668H15.3306L17.3104 19.8335H8.75C7.7835 19.8335 7 19.05 7 18.0835C7 17.117 7.7835 16.3335 8.75 16.3335H17.7347L18.6794 8.5396C18.7957 7.58012 19.6678 6.89659 20.6272 7.01289ZM20.836 19.8335L18.8562 36.1668H35.164L37.1438 19.8335H20.836Z" fill="#111135"/>
</svg>
