<svg width="46" height="47" viewBox="0 0 46 47" fill="none" xmlns="http://www.w3.org/2000/svg">
<path d="M25.1649 3.31606C24.2938 1.50011 21.7057 1.50012 20.8346 3.31606L16.0296 13.3329L4.96373 14.7839C2.97341 15.0449 2.14631 17.5067 3.6269 18.9048L11.7157 26.5431L9.68554 37.4494C9.31216 39.4553 11.4332 40.945 13.1876 39.9978L22.9997 34.7003L32.8119 39.9978C34.5663 40.945 36.6873 39.4553 36.3139 37.4494L34.2838 26.5431L42.3726 18.9048C43.8532 17.5067 43.0261 15.0449 41.0357 14.7839L29.9699 13.3329L25.1649 3.31606Z" fill="white"/>
<g clip-path="url(#clip0_545_174)">
<path d="M6.97065 19.7502C6.78128 19.3554 6.21864 19.3554 6.02927 19.7502L4.98471 21.9277L2.57909 22.2432C2.14641 22.2999 1.96661 22.8351 2.28847 23.139L4.04691 24.7995L3.60557 27.1705C3.5244 27.6065 3.98549 27.9304 4.36688 27.7245L6.49996 26.5728L8.63304 27.7245C9.01442 27.9304 9.47552 27.6065 9.39435 27.1705L8.95301 24.7995L10.7114 23.139C11.0333 22.8351 10.8535 22.2999 10.4208 22.2432L8.0152 21.9277L6.97065 19.7502Z" fill="#FFD569"/>
</g>
<g clip-path="url(#clip1_545_174)">
<path d="M17.9706 19.7502C17.7813 19.3554 17.2186 19.3554 17.0293 19.7502L15.9847 21.9277L13.5791 22.2432C13.1464 22.2999 12.9666 22.8351 13.2885 23.139L15.0469 24.7995L14.6056 27.1705C14.5244 27.6065 14.9855 27.9304 15.3669 27.7245L17.5 26.5728L19.633 27.7245C20.0144 27.9304 20.4755 27.6065 20.3943 27.1705L19.953 24.7995L21.7114 23.139C22.0333 22.8351 21.8535 22.2999 21.4208 22.2432L19.0152 21.9277L17.9706 19.7502Z" fill="#FFD569"/>
</g>
<g clip-path="url(#clip2_545_174)">
<path d="M28.9706 19.7502C28.7813 19.3554 28.2186 19.3554 28.0293 19.7502L26.9847 21.9277L24.5791 22.2432C24.1464 22.2999 23.9666 22.8351 24.2885 23.139L26.0469 24.7995L25.6056 27.1705C25.5244 27.6065 25.9855 27.9304 26.3669 27.7245L28.5 26.5728L30.633 27.7245C31.0144 27.9304 31.4755 27.6065 31.3943 27.1705L30.953 24.7995L32.7114 23.139C33.0333 22.8351 32.8535 22.2999 32.4208 22.2432L30.0152 21.9277L28.9706 19.7502Z" fill="#FFD569"/>
</g>
<g clip-path="url(#clip3_545_174)">
<path d="M39.9706 19.7502C39.7813 19.3554 39.2186 19.3554 39.0293 19.7502L37.9847 21.9277L35.5791 22.2432C35.1464 22.2999 34.9666 22.8351 35.2885 23.139L37.0469 24.7995L36.6056 27.1705C36.5244 27.6065 36.9855 27.9304 37.3669 27.7245L39.5 26.5728L41.633 27.7245C42.0144 27.9304 42.4755 27.6065 42.3943 27.1705L41.953 24.7995L43.7114 23.139C44.0333 22.8351 43.8535 22.2999 43.4208 22.2432L41.0152 21.9277L39.9706 19.7502Z" fill="#FFD569"/>
</g>
<defs>
<clipPath id="clip0_545_174">
<rect width="10" height="10" fill="white" transform="translate(1.5 19.0371)"/>
</clipPath>
<clipPath id="clip1_545_174">
<rect width="10" height="10" fill="white" transform="translate(12.5 19.0371)"/>
</clipPath>
<clipPath id="clip2_545_174">
<rect width="10" height="10" fill="white" transform="translate(23.5 19.0371)"/>
</clipPath>
<clipPath id="clip3_545_174">
<rect width="10" height="10" fill="white" transform="translate(34.5 19.0371)"/>
</clipPath>
</defs>
</svg>
