<svg width="56" height="56" viewBox="0 0 56 56" fill="none" xmlns="http://www.w3.org/2000/svg">
<path d="M43.1667 12.8333L34.6871 21.3129M21.3008 34.6992L12.8333 43.1667M12.8333 12.8333L21.3008 21.3008M34.6871 34.6871L43.1667 43.1667M49 28C49 39.598 39.598 49 28 49C16.402 49 7 39.598 7 28C7 16.402 16.402 7 28 7C39.598 7 49 16.402 49 28ZM37.3333 28C37.3333 33.1547 33.1547 37.3333 28 37.3333C22.8453 37.3333 18.6667 33.1547 18.6667 28C18.6667 22.8453 22.8453 18.6667 28 18.6667C33.1547 18.6667 37.3333 22.8453 37.3333 28Z" stroke="#111135" stroke-width="2.2"/>
</svg>
