<svg width="200" height="218" viewBox="0 0 200 218" fill="none" xmlns="http://www.w3.org/2000/svg">
<path d="M129.027 24.054L129.356 24.4203L153.181 50.9777C153.181 50.9779 153.181 50.9781 153.181 50.9783C156.415 54.5435 160.891 56.45 165.535 56.45C167.778 56.45 170.011 56.035 172.158 55.0443L172.165 55.0407C177.804 52.5532 181.534 47.248 182.031 41.1955L182.065 40.7776L182.483 40.7386L203.491 38.7744L203.988 38.728L204.036 39.2247L207.366 74.0679L207.366 74.0691C208.029 81.1939 213.248 87.0794 220.21 88.6568C221.47 88.9086 222.714 89.0728 223.863 89.0728C228.754 89.0728 233.395 86.918 236.544 83.1056L236.814 82.7787L237.181 82.9917L255.114 93.4105L255.554 93.6658L255.291 94.101L237.272 123.991L237.271 123.993C233.541 130.127 234.205 138.001 238.928 143.387L238.93 143.389C242.163 147.12 246.721 149.109 251.447 149.109C252.857 149.109 254.185 148.944 255.603 148.61L256.008 148.515L256.175 148.895L264.288 167.342L264.492 167.806L264.025 168.004L231.318 181.838C224.686 184.656 220.623 191.454 221.287 198.668C221.867 204.883 225.929 210.191 231.569 212.514L231.959 212.674L231.866 213.086L227.425 232.728L227.316 233.212L226.831 233.106L191.733 225.421C191.733 225.421 191.733 225.421 191.732 225.421C190.561 225.17 189.317 225.005 188.166 225.005C182.366 225.005 176.893 228.07 173.823 233.212C170.755 238.522 170.842 245.069 173.987 250.117L174.212 250.479L173.89 250.758L158.262 264.337L157.891 264.66L157.562 264.294L133.737 237.736C133.737 237.736 133.737 237.736 133.737 237.735C130.503 234.17 126.027 232.264 121.383 232.264C119.14 232.264 116.907 232.679 114.761 233.67L114.753 233.673C109.114 236.161 105.384 241.466 104.887 247.518L104.852 247.936L104.435 247.975L83.4267 249.939L82.9299 249.986L82.8824 249.489L79.5517 214.646L79.5515 214.645C78.8888 207.52 73.6698 201.634 66.7082 200.057C65.4477 199.805 64.2039 199.641 63.0549 199.641C58.1641 199.641 53.5236 201.796 50.3742 205.608L50.1041 205.935L49.7375 205.722L31.8035 195.303L31.3641 195.048L31.6264 194.613L49.646 164.723L49.6469 164.721C53.3773 158.587 52.7129 150.713 47.9901 145.327L47.9882 145.325C44.7546 141.594 40.1965 139.605 35.4706 139.605C34.0607 139.605 32.7328 139.77 31.3151 140.104L30.9103 140.199L30.7429 139.819L22.63 121.372L22.4259 120.908L22.893 120.71L55.6002 106.876L129.027 24.054ZM129.027 24.054L128.656 24.3768M129.027 24.054L128.656 24.3768M128.656 24.3768L113.028 37.9554L112.706 38.2352L112.931 38.5972C116.076 43.645 116.163 50.192 113.095 55.5011C110.025 60.6436 104.552 63.709 98.752 63.709C97.6012 63.709 96.357 63.5443 95.186 63.2934C95.1855 63.2933 95.1851 63.2932 95.1846 63.2931L60.0876 55.6076L59.6024 55.5014L59.4929 55.9858L55.0519 75.6278L54.9588 76.0396M128.656 24.3768L54.9588 76.0396M54.9588 76.0396L55.3493 76.2004M54.9588 76.0396L55.3493 76.2004M55.3493 76.2004C60.9889 78.5226 65.0512 83.8307 65.6315 90.0456M55.3493 76.2004L65.6315 90.0456M65.6315 90.0456C66.2948 97.2593 62.232 104.057 55.601 106.876L65.6315 90.0456ZM89.9844 36.5848L130.52 1.50439L165.163 40.1185L166.18 41.253L166.033 39.7361L164.715 26.2309L218.46 21.284L223.365 72.6258L223.509 74.1282L224.291 72.8372L231.381 61.1305L277.829 88.1272L251.105 132.442L250.303 133.771L251.73 133.159L264.427 127.718L285.885 176.334L237.758 196.802L236.318 197.415L237.847 197.751L251.36 200.717L239.541 252.434L188.359 241.182L186.845 240.849L187.879 242.004L197.019 252.214L156.527 287.258L121.841 248.595L120.823 247.461L120.971 248.978L122.288 262.483L68.5437 267.43L63.6381 216.173L63.4943 214.671L62.7127 215.962L55.6225 227.669L9.17499 200.672L35.8987 156.358L36.7003 155.028L35.2736 155.64L22.5769 161.081L1.11886 112.466L49.2451 91.9971L50.6859 91.3843L49.1566 91.0487L35.6435 88.0824L47.4621 36.3656L98.6447 47.6174L100.158 47.9501L99.1245 46.7956L89.9844 36.5848Z" fill="white" stroke="white"/>
</svg>
