<svg width="126" height="30" viewBox="0 0 126 30" fill="none" xmlns="http://www.w3.org/2000/svg">
<g id="Logo">
<g id="Logo_2">
<g id="SniperBot">
<path d="M45.6797 18.1192C45.6797 17.8503 45.6388 17.6091 45.5571 17.3954C45.4822 17.1748 45.3392 16.9749 45.1281 16.7956C44.917 16.6095 44.6208 16.4268 44.2394 16.2476C43.8581 16.0684 43.3644 15.8823 42.7583 15.6893C42.0842 15.4687 41.4441 15.2205 40.838 14.9448C40.2387 14.669 39.7076 14.3485 39.2445 13.9831C38.7883 13.6109 38.4274 13.1801 38.1618 12.6906C37.903 12.2012 37.7736 11.6325 37.7736 10.9845C37.7736 10.3572 37.9098 9.78852 38.1822 9.27841C38.4546 8.7614 38.8359 8.32023 39.3262 7.95488C39.8165 7.58263 40.3954 7.29656 41.0627 7.09665C41.7369 6.89674 42.4757 6.79679 43.2793 6.79679C44.3756 6.79679 45.3324 6.9967 46.1496 7.39651C46.9667 7.79633 47.6 8.34435 48.0495 9.04058C48.5057 9.73682 48.7339 10.533 48.7339 11.4291H45.6899C45.6899 10.988 45.598 10.6019 45.4141 10.2711C45.2371 9.93328 44.9647 9.66788 44.597 9.47487C44.236 9.28185 43.7798 9.18535 43.2282 9.18535C42.697 9.18535 42.2544 9.26807 41.9003 9.43351C41.5462 9.59206 41.2806 9.8092 41.1036 10.0849C40.9265 10.3538 40.838 10.6571 40.838 10.9949C40.838 11.2499 40.8993 11.4808 41.0219 11.6876C41.1512 11.8944 41.3419 12.0875 41.5939 12.2667C41.8458 12.4459 42.1557 12.6148 42.5234 12.7734C42.8911 12.9319 43.3167 13.087 43.8002 13.2387C44.6106 13.4868 45.3222 13.766 45.9351 14.0762C46.5547 14.3864 47.0723 14.7345 47.4877 15.1205C47.9031 15.5066 48.2163 15.9443 48.4274 16.4337C48.6385 16.9232 48.7441 17.4781 48.7441 18.0985C48.7441 18.7534 48.6181 19.3393 48.3661 19.8563C48.1142 20.3733 47.7498 20.811 47.2732 21.1695C46.7965 21.5279 46.2279 21.8002 45.5673 21.9864C44.9068 22.1725 44.1679 22.2655 43.3508 22.2655C42.6153 22.2655 41.8901 22.169 41.1751 21.976C40.4601 21.7761 39.8097 21.4762 39.2241 21.0764C38.6453 20.6766 38.1822 20.1665 37.8349 19.5461C37.4876 18.9257 37.314 18.1915 37.314 17.3437H40.3886C40.3886 17.8124 40.4601 18.2088 40.6031 18.5328C40.7461 18.8568 40.9469 19.1187 41.2057 19.3186C41.4713 19.5185 41.7845 19.6633 42.1455 19.7529C42.5132 19.8425 42.915 19.8873 43.3508 19.8873C43.8819 19.8873 44.3178 19.8115 44.6582 19.6598C45.0055 19.5082 45.2609 19.2979 45.4243 19.0291C45.5946 18.7603 45.6797 18.4569 45.6797 18.1192Z" fill="white"/>
<path d="M53.1061 13.2593V22.0587H50.1643V10.8708H52.9222L53.1061 13.2593ZM52.6771 16.0718H51.8803C51.8803 15.2446 51.9859 14.5001 52.197 13.8384C52.4081 13.1697 52.7043 12.601 53.0857 12.1323C53.467 11.6566 53.9199 11.2947 54.4442 11.0466C54.9754 10.7915 55.5678 10.664 56.2215 10.664C56.7391 10.664 57.2124 10.7398 57.6414 10.8915C58.0704 11.0431 58.4381 11.2844 58.7445 11.6153C59.0578 11.9461 59.2961 12.3839 59.4596 12.9285C59.6298 13.473 59.7149 14.1382 59.7149 14.9241V22.0587H56.7527V14.9137C56.7527 14.4174 56.6846 14.0314 56.5484 13.7557C56.4122 13.4799 56.2113 13.2869 55.9457 13.1766C55.687 13.0594 55.3669 13.0008 54.9856 13.0008C54.5906 13.0008 54.2467 13.0801 53.9539 13.2387C53.6679 13.3972 53.4296 13.6178 53.2389 13.9004C53.055 14.1762 52.9154 14.5001 52.8201 14.8724C52.7248 15.2446 52.6771 15.6444 52.6771 16.0718Z" fill="white"/>
<path d="M64.6388 10.8708V22.0587H61.6867V10.8708H64.6388ZM61.5029 7.95488C61.5029 7.52059 61.6527 7.16214 61.9523 6.87951C62.252 6.59688 62.6537 6.45557 63.1576 6.45557C63.6548 6.45557 64.0531 6.59688 64.3527 6.87951C64.6592 7.16214 64.8124 7.52059 64.8124 7.95488C64.8124 8.38916 64.6592 8.74762 64.3527 9.03024C64.0531 9.31287 63.6548 9.45419 63.1576 9.45419C62.6537 9.45419 62.252 9.31287 61.9523 9.03024C61.6527 8.74762 61.5029 8.38916 61.5029 7.95488Z" fill="white"/>
<path d="M69.5932 13.0215V26.3602H66.6514V10.8708H69.3787L69.5932 13.0215ZM76.5902 16.3407V16.5578C76.5902 17.3712 76.4949 18.1261 76.3042 18.8223C76.1203 19.5185 75.848 20.1251 75.487 20.6421C75.1261 21.1523 74.6767 21.5521 74.1387 21.8416C73.6076 22.1242 72.9947 22.2655 72.3001 22.2655C71.6259 22.2655 71.0403 22.1277 70.5432 21.8519C70.0461 21.5762 69.6273 21.1902 69.2868 20.6938C68.9531 20.1906 68.6841 19.6081 68.4798 18.9464C68.2756 18.2846 68.1189 17.5746 68.01 16.8163V16.2476C68.1189 15.4342 68.2756 14.6897 68.4798 14.0142C68.6841 13.3317 68.9531 12.7423 69.2868 12.246C69.6273 11.7428 70.0427 11.3533 70.533 11.0776C71.0301 10.8018 71.6123 10.664 72.2797 10.664C72.9811 10.664 73.5973 10.7984 74.1285 11.0672C74.6665 11.3361 75.1159 11.7221 75.4768 12.2253C75.8445 12.7285 76.1203 13.3283 76.3042 14.0245C76.4949 14.7207 76.5902 15.4928 76.5902 16.3407ZM73.6382 16.5578V16.3407C73.6382 15.865 73.5973 15.4273 73.5156 15.0275C73.4407 14.6208 73.3181 14.2658 73.1479 13.9625C72.9845 13.6592 72.7666 13.4248 72.4942 13.2593C72.2286 13.087 71.9051 13.0008 71.5238 13.0008C71.122 13.0008 70.7781 13.0663 70.4921 13.1973C70.2129 13.3283 69.9848 13.5178 69.8077 13.766C69.6307 14.0142 69.4979 14.3106 69.4094 14.6552C69.3208 14.9999 69.2664 15.3894 69.2459 15.8237V17.2609C69.28 17.7711 69.3753 18.2295 69.5319 18.6362C69.6886 19.036 69.9303 19.3531 70.2572 19.5875C70.584 19.8218 71.0131 19.939 71.5442 19.939C71.9324 19.939 72.2592 19.8529 72.5248 19.6805C72.7904 19.5013 73.0049 19.2566 73.1683 18.9464C73.3386 18.6362 73.4577 18.2777 73.5258 17.871C73.6007 17.4643 73.6382 17.0266 73.6382 16.5578Z" fill="white"/>
<path d="M83.0871 22.2655C82.2291 22.2655 81.4596 22.1277 80.7786 21.8519C80.0976 21.5693 79.5188 21.1798 79.0421 20.6835C78.5722 20.1872 78.2113 19.6116 77.9594 18.9567C77.7074 18.2949 77.5814 17.5918 77.5814 16.8473V16.4337C77.5814 15.5859 77.7006 14.8103 77.9389 14.1072C78.1773 13.4041 78.5178 12.794 78.9604 12.277C79.4098 11.76 79.9546 11.3637 80.5947 11.0879C81.2348 10.8053 81.9567 10.664 82.7602 10.664C83.5433 10.664 84.2379 10.795 84.844 11.0569C85.4501 11.3188 85.9574 11.6911 86.366 12.1736C86.7814 12.6562 87.0946 13.2352 87.3057 13.9108C87.5168 14.5794 87.6224 15.3239 87.6224 16.1442V17.385H78.8378V15.3997H84.7316V15.1722C84.7316 14.7586 84.6567 14.3898 84.5069 14.0659C84.3639 13.735 84.146 13.473 83.8532 13.28C83.5604 13.087 83.1858 12.9905 82.7296 12.9905C82.3414 12.9905 82.0077 13.0767 81.7285 13.249C81.4493 13.4213 81.2212 13.6626 81.0442 13.9728C80.8739 14.283 80.7445 14.6484 80.656 15.0688C80.5743 15.4825 80.5334 15.9374 80.5334 16.4337V16.8473C80.5334 17.2954 80.5947 17.709 80.7173 18.0881C80.8467 18.4673 81.0271 18.7947 81.2587 19.0705C81.497 19.3462 81.783 19.5599 82.1167 19.7115C82.4572 19.8632 82.8419 19.939 83.2709 19.939C83.8021 19.939 84.2958 19.8356 84.7521 19.6288C85.2151 19.4151 85.6135 19.0946 85.9472 18.6672L87.3772 20.2389C87.1457 20.5767 86.829 20.9006 86.4272 21.2109C86.0323 21.5211 85.5556 21.7761 84.9972 21.976C84.4388 22.169 83.8021 22.2655 83.0871 22.2655Z" fill="white"/>
<path d="M91.8209 13.311V22.0587H88.8792V10.8708H91.6473L91.8209 13.311ZM95.1509 10.7984L95.0998 13.5592C94.9568 13.5385 94.7832 13.5213 94.5789 13.5075C94.3814 13.4868 94.2009 13.4765 94.0375 13.4765C93.6221 13.4765 93.2612 13.5316 92.9548 13.6419C92.6551 13.7453 92.4032 13.9004 92.1989 14.1072C92.0014 14.314 91.8516 14.5656 91.7494 14.862C91.6541 15.1585 91.5996 15.4962 91.586 15.8754L90.9936 15.6893C90.9936 14.9654 91.0651 14.3002 91.2081 13.6936C91.3511 13.0801 91.5588 12.5459 91.8312 12.0909C92.1104 11.6359 92.4508 11.2844 92.8526 11.0362C93.2544 10.7881 93.714 10.664 94.2316 10.664C94.395 10.664 94.5619 10.6778 94.7321 10.7053C94.9023 10.726 95.0419 10.757 95.1509 10.7984Z" fill="white"/>
<path d="M102.128 15.4514H98.3076L98.2872 13.3214H101.495C102.06 13.3214 102.523 13.249 102.884 13.1042C103.245 12.9526 103.514 12.7354 103.691 12.4528C103.875 12.1633 103.966 11.8117 103.966 11.3981C103.966 10.9294 103.878 10.5502 103.701 10.2607C103.531 9.97119 103.262 9.76094 102.894 9.62997C102.533 9.49899 102.067 9.43351 101.495 9.43351H99.3699V22.0587H96.3056V7.00359H101.495C102.359 7.00359 103.132 7.08631 103.813 7.25175C104.501 7.41719 105.083 7.6688 105.56 8.00658C106.037 8.34435 106.401 8.77174 106.653 9.28875C106.905 9.79886 107.031 10.4055 107.031 11.1086C107.031 11.729 106.891 12.3012 106.612 12.8251C106.34 13.3489 105.907 13.7763 105.315 14.1072C104.729 14.4381 103.963 14.6208 103.017 14.6552L102.128 15.4514ZM101.995 22.0587H97.47L98.6651 19.6392H101.995C102.533 19.6392 102.972 19.553 103.313 19.3807C103.653 19.2014 103.905 18.9602 104.069 18.6569C104.232 18.3535 104.314 18.0054 104.314 17.6125C104.314 17.1713 104.239 16.7887 104.089 16.4648C103.946 16.1408 103.715 15.8926 103.394 15.7203C103.074 15.541 102.652 15.4514 102.128 15.4514H99.1758L99.1963 13.3214H102.874L103.578 14.1589C104.484 14.1451 105.213 14.3071 105.764 14.6449C106.323 14.9758 106.728 15.4066 106.98 15.9374C107.239 16.4682 107.368 17.0369 107.368 17.6435C107.368 18.6086 107.16 19.422 106.745 20.0838C106.329 20.7387 105.72 21.2315 104.916 21.5624C104.12 21.8933 103.146 22.0587 101.995 22.0587Z" fill="white"/>
<path d="M108.594 16.5785V16.3614C108.594 15.541 108.71 14.7862 108.941 14.0969C109.173 13.4006 109.51 12.7975 109.953 12.2874C110.395 11.7773 110.94 11.3809 111.587 11.0983C112.234 10.8087 112.976 10.664 113.814 10.664C114.651 10.664 115.397 10.8087 116.051 11.0983C116.704 11.3809 117.253 11.7773 117.695 12.2874C118.145 12.7975 118.485 13.4006 118.717 14.0969C118.948 14.7862 119.064 15.541 119.064 16.3614V16.5785C119.064 17.3919 118.948 18.1467 118.717 18.843C118.485 19.5323 118.145 20.1355 117.695 20.6525C117.253 21.1626 116.708 21.559 116.061 21.8416C115.414 22.1242 114.672 22.2655 113.834 22.2655C112.997 22.2655 112.251 22.1242 111.597 21.8416C110.95 21.559 110.402 21.1626 109.953 20.6525C109.51 20.1355 109.173 19.5323 108.941 18.843C108.71 18.1467 108.594 17.3919 108.594 16.5785ZM111.536 16.3614V16.5785C111.536 17.0472 111.577 17.485 111.658 17.8917C111.74 18.2984 111.87 18.6569 112.047 18.9671C112.23 19.2704 112.469 19.5082 112.762 19.6805C113.054 19.8529 113.412 19.939 113.834 19.939C114.243 19.939 114.593 19.8529 114.886 19.6805C115.179 19.5082 115.414 19.2704 115.591 18.9671C115.768 18.6569 115.898 18.2984 115.979 17.8917C116.068 17.485 116.112 17.0472 116.112 16.5785V16.3614C116.112 15.9064 116.068 15.479 115.979 15.0792C115.898 14.6725 115.765 14.314 115.581 14.0038C115.404 13.6867 115.169 13.4386 114.876 13.2593C114.583 13.0801 114.229 12.9905 113.814 12.9905C113.398 12.9905 113.044 13.0801 112.751 13.2593C112.465 13.4386 112.23 13.6867 112.047 14.0038C111.87 14.314 111.74 14.6725 111.658 15.0792C111.577 15.479 111.536 15.9064 111.536 16.3614Z" fill="white"/>
<path d="M125.867 10.8708V12.9802H119.432V10.8708H125.867ZM121.026 8.10998H123.967V18.6879C123.967 19.0119 124.008 19.26 124.09 19.4324C124.179 19.6047 124.308 19.7253 124.478 19.7943C124.648 19.8563 124.863 19.8873 125.122 19.8873C125.306 19.8873 125.469 19.8804 125.612 19.8666C125.762 19.846 125.888 19.8253 125.99 19.8046L126 21.9967C125.748 22.0794 125.476 22.1449 125.183 22.1932C124.89 22.2414 124.567 22.2655 124.213 22.2655C123.566 22.2655 123 22.1587 122.517 21.945C122.04 21.7244 121.673 21.3728 121.414 20.8903C121.155 20.4078 121.026 19.7736 121.026 18.9877V8.10998Z" fill="white"/>
</g>
<g id="Group 2">
<path id="Vector" d="M20.9703 0H8.66553C3.87969 0 0 3.92736 0 8.772V21.228C0 26.0726 3.87969 30 8.66553 30H20.9703C25.7562 30 29.6359 26.0726 29.6359 21.228V8.772C29.6359 3.92736 25.7562 0 20.9703 0Z" fill="#8647EB"/>
<path id="Vector_2" d="M14.1847 6.25525L13.8543 5.88246L13.4803 6.21143L12.3956 7.16543L12.0791 7.44387L12.3 7.80293C12.3684 7.91402 12.4021 8.04593 12.3983 8.17981L12.0869 7.82766L11.7617 7.45996L13.8757 5.60794L15.9732 7.97451L16.3037 8.34751C16.1284 8.33648 15.9621 8.25888 15.8373 8.12005C15.8371 8.11977 15.8369 8.1195 15.8366 8.11923L14.1847 6.25525ZM12.0755 8.75193C11.9661 8.82161 11.8402 8.85888 11.7123 8.85888C11.6744 8.85888 11.6225 8.853 11.5645 8.84046C11.5641 8.84039 11.5638 8.84032 11.5634 8.84024L9.12959 8.30073L8.64222 8.19269L8.5334 8.67989L8.22518 10.0599L8.13378 10.4691L8.52078 10.6304C8.6503 10.6844 8.76044 10.7774 8.83715 10.8943L8.37116 10.7908L7.88884 10.6836L8.50433 7.95722L11.6037 8.64694L12.0755 8.75193ZM16.8451 7.59491L16.7983 7.11019L19.601 6.84905L19.8978 9.99387L19.9423 10.4649C19.8155 10.3507 19.7306 10.1898 19.714 10.0091L19.7139 10.0079L19.4827 7.55988L19.4357 7.06198L18.9378 7.1091L17.4797 7.2471L17.0624 7.2866L17.0285 7.70442C17.0174 7.841 16.9687 7.96738 16.891 8.07164L16.8451 7.59491ZM20.8247 10.2036L21.0796 9.77752L23.5022 11.2029L21.8865 13.915L21.6434 14.3229C21.6027 14.1488 21.6283 13.9595 21.7252 13.7984L21.7261 13.7967L22.9768 11.6967L23.234 11.2648L22.8006 11.0099L21.556 10.2779L21.1863 10.0605L20.9151 10.3928C20.8255 10.5025 20.7079 10.5786 20.5783 10.6155L20.8247 10.2036ZM22.515 14.6296L22.97 14.4322L24.0871 16.9943L21.1759 18.2476L20.7242 18.4421C20.7907 18.268 20.9236 18.1249 21.0967 18.0503C21.0968 18.0503 21.0969 18.0502 21.097 18.0502L23.3663 17.0785L23.8284 16.8807L23.6281 16.4196L23.065 15.1236L22.8981 14.7394L22.4906 14.8365C22.4243 14.8523 22.3684 14.8589 22.3101 14.8589C22.231 14.8589 22.1532 14.8453 22.0795 14.8185L22.515 14.6296ZM21.2652 19.195L21.7475 19.3021L21.132 22.0285L18.0326 21.3388L17.5495 21.2313C17.6601 21.1594 17.7881 21.1209 17.9181 21.1209C17.956 21.1209 18.0079 21.1268 18.066 21.1393C18.0663 21.1394 18.0666 21.1394 18.0669 21.1395L20.5008 21.679L20.9882 21.7871L21.097 21.2999L21.4052 19.9199L21.4966 19.5107L21.1096 19.3494C20.9821 19.2962 20.8734 19.2052 20.7968 19.0909L21.2652 19.195ZM17.5494 22.1581L17.8746 22.5258L15.7635 24.3752L13.6631 22.0052L13.3329 21.6327C13.5059 21.6451 13.6697 21.7225 13.793 21.8597C13.7933 21.86 13.7935 21.8602 13.7938 21.8605L15.4456 23.7245L15.776 24.0973L16.1501 23.7683L17.2347 22.8143L17.5513 22.5359L17.3303 22.1768C17.2619 22.0656 17.2282 21.9334 17.2321 21.7993L17.5494 22.1581ZM12.7912 22.3848L12.838 22.8696L10.0352 23.1307L9.73846 19.9918L9.69387 19.5202C9.81741 19.634 9.9 19.7927 9.91635 19.9706L9.91646 19.9719L10.1476 22.4199L10.1946 22.9178L10.6925 22.8707L12.1506 22.7327L12.5679 22.6932L12.6019 22.2753C12.6132 22.1357 12.6638 22.0067 12.7446 21.9012L12.7912 22.3848ZM8.81161 19.7822L8.5567 20.2082L6.13414 18.7829L7.74982 16.0708L7.98954 15.6684C8.02648 15.8393 7.99989 16.0238 7.90521 16.1814L7.90424 16.183L6.65359 18.283L6.39634 18.715L6.82972 18.9699L8.07443 19.7019L8.44411 19.9193L8.71527 19.587C8.80746 19.474 8.9294 19.3967 9.06351 19.3611L8.81161 19.7822ZM7.12126 15.3562L6.66634 15.5535L5.54923 12.9915L8.46042 11.7381L8.90217 11.5479C8.83445 11.7174 8.70338 11.8563 8.53371 11.9294C8.53358 11.9295 8.53346 11.9295 8.53333 11.9296L6.26403 12.9012L5.80194 13.0991L6.00225 13.5601L6.56532 14.8561L6.73225 15.2403L7.13976 15.1433C7.20602 15.1275 7.26191 15.1209 7.32026 15.1209C7.40314 15.1209 7.48468 15.1358 7.56143 15.1652L7.12126 15.3562Z" fill="white" stroke="white"/>
</g>
</g>
</g>
</svg>
