<svg width="145" height="34" viewBox="0 0 145 34" fill="none" xmlns="http://www.w3.org/2000/svg">
<path d="M52.4062 20.5352C52.4062 20.2305 52.3594 19.957 52.2656 19.7148C52.1797 19.4648 52.0156 19.2383 51.7734 19.0352C51.5312 18.8242 51.1914 18.6172 50.7539 18.4141C50.3164 18.2109 49.75 18 49.0547 17.7812C48.2812 17.5312 47.5469 17.25 46.8516 16.9375C46.1641 16.625 45.5547 16.2617 45.0234 15.8477C44.5 15.4258 44.0859 14.9375 43.7812 14.3828C43.4844 13.8281 43.3359 13.1836 43.3359 12.4492C43.3359 11.7383 43.4922 11.0938 43.8047 10.5156C44.1172 9.92969 44.5547 9.42969 45.1172 9.01562C45.6797 8.59375 46.3438 8.26953 47.1094 8.04297C47.8828 7.81641 48.7305 7.70312 49.6523 7.70312C50.9102 7.70312 52.0078 7.92969 52.9453 8.38281C53.8828 8.83594 54.6094 9.45703 55.125 10.2461C55.6484 11.0352 55.9102 11.9375 55.9102 12.9531H52.418C52.418 12.4531 52.3125 12.0156 52.1016 11.6406C51.8984 11.2578 51.5859 10.957 51.1641 10.7383C50.75 10.5195 50.2266 10.4102 49.5938 10.4102C48.9844 10.4102 48.4766 10.5039 48.0703 10.6914C47.6641 10.8711 47.3594 11.1172 47.1562 11.4297C46.9531 11.7344 46.8516 12.0781 46.8516 12.4609C46.8516 12.75 46.9219 13.0117 47.0625 13.2461C47.2109 13.4805 47.4297 13.6992 47.7188 13.9023C48.0078 14.1055 48.3633 14.2969 48.7852 14.4766C49.207 14.6562 49.6953 14.832 50.25 15.0039C51.1797 15.2852 51.9961 15.6016 52.6992 15.9531C53.4102 16.3047 54.0039 16.6992 54.4805 17.1367C54.957 17.5742 55.3164 18.0703 55.5586 18.625C55.8008 19.1797 55.9219 19.8086 55.9219 20.5117C55.9219 21.2539 55.7773 21.918 55.4883 22.5039C55.1992 23.0898 54.7812 23.5859 54.2344 23.9922C53.6875 24.3984 53.0352 24.707 52.2773 24.918C51.5195 25.1289 50.6719 25.2344 49.7344 25.2344C48.8906 25.2344 48.0586 25.125 47.2383 24.9062C46.418 24.6797 45.6719 24.3398 45 23.8867C44.3359 23.4336 43.8047 22.8555 43.4062 22.1523C43.0078 21.4492 42.8086 20.6172 42.8086 19.6562H46.3359C46.3359 20.1875 46.418 20.6367 46.582 21.0039C46.7461 21.3711 46.9766 21.668 47.2734 21.8945C47.5781 22.1211 47.9375 22.2852 48.3516 22.3867C48.7734 22.4883 49.2344 22.5391 49.7344 22.5391C50.3438 22.5391 50.8438 22.4531 51.2344 22.2812C51.6328 22.1094 51.9258 21.8711 52.1133 21.5664C52.3086 21.2617 52.4062 20.918 52.4062 20.5352Z" fill="black"/>
<path d="M60.9263 15.0273V25H57.5513V12.3203H60.7153L60.9263 15.0273ZM60.4341 18.2148H59.52C59.52 17.2773 59.6411 16.4336 59.8833 15.6836C60.1255 14.9258 60.4653 14.2812 60.9028 13.75C61.3403 13.2109 61.8598 12.8008 62.4614 12.5195C63.0708 12.2305 63.7505 12.0859 64.5005 12.0859C65.0942 12.0859 65.6372 12.1719 66.1294 12.3438C66.6216 12.5156 67.0434 12.7891 67.395 13.1641C67.7544 13.5391 68.0278 14.0352 68.2153 14.6523C68.4106 15.2695 68.5083 16.0234 68.5083 16.9141V25H65.1098V16.9023C65.1098 16.3398 65.0317 15.9023 64.8755 15.5898C64.7192 15.2773 64.4888 15.0586 64.1841 14.9336C63.8872 14.8008 63.52 14.7344 63.0825 14.7344C62.6294 14.7344 62.2348 14.8242 61.8989 15.0039C61.5708 15.1836 61.2973 15.4336 61.0786 15.7539C60.8677 16.0664 60.7075 16.4336 60.5981 16.8555C60.4888 17.2773 60.4341 17.7305 60.4341 18.2148Z" fill="black"/>
<path d="M74.1572 12.3203V25H70.7705V12.3203H74.1572ZM70.5595 9.01562C70.5595 8.52344 70.7314 8.11719 71.0752 7.79688C71.4189 7.47656 71.8798 7.31641 72.458 7.31641C73.0283 7.31641 73.4853 7.47656 73.8291 7.79688C74.1806 8.11719 74.3564 8.52344 74.3564 9.01562C74.3564 9.50781 74.1806 9.91406 73.8291 10.2344C73.4853 10.5547 73.0283 10.7148 72.458 10.7148C71.8798 10.7148 71.4189 10.5547 71.0752 10.2344C70.7314 9.91406 70.5595 9.50781 70.5595 9.01562Z" fill="black"/>
<path d="M79.8413 14.7578V29.875H76.4663V12.3203H79.5952L79.8413 14.7578ZM87.8686 18.5195V18.7656C87.8686 19.6875 87.7592 20.543 87.5405 21.332C87.3295 22.1211 87.017 22.8086 86.603 23.3945C86.1889 23.9727 85.6733 24.4258 85.0561 24.7539C84.4467 25.0742 83.7436 25.2344 82.9467 25.2344C82.1733 25.2344 81.5014 25.0781 80.9311 24.7656C80.3608 24.4531 79.8803 24.0156 79.4897 23.4531C79.1069 22.8828 78.7983 22.2227 78.5639 21.4727C78.3295 20.7227 78.1498 19.918 78.0248 19.0586V18.4141C78.1498 17.4922 78.3295 16.6484 78.5639 15.8828C78.7983 15.1094 79.1069 14.4414 79.4897 13.8789C79.8803 13.3086 80.3569 12.8672 80.9194 12.5547C81.4897 12.2422 82.1577 12.0859 82.9233 12.0859C83.728 12.0859 84.435 12.2383 85.0444 12.543C85.6616 12.8477 86.1772 13.2852 86.5913 13.8555C87.0131 14.4258 87.3295 15.1055 87.5405 15.8945C87.7592 16.6836 87.8686 17.5586 87.8686 18.5195ZM84.4819 18.7656V18.5195C84.4819 17.9805 84.435 17.4844 84.3413 17.0312C84.2553 16.5703 84.1147 16.168 83.9194 15.8242C83.7319 15.4805 83.4819 15.2148 83.1694 15.0273C82.8647 14.832 82.4936 14.7344 82.0561 14.7344C81.5952 14.7344 81.2006 14.8086 80.8725 14.957C80.5522 15.1055 80.2905 15.3203 80.0873 15.6016C79.8842 15.8828 79.7319 16.2188 79.6303 16.6094C79.5288 17 79.4663 17.4414 79.4428 17.9336V19.5625C79.4819 20.1406 79.5913 20.6602 79.7709 21.1211C79.9506 21.5742 80.228 21.9336 80.603 22.1992C80.978 22.4648 81.4702 22.5977 82.0795 22.5977C82.5248 22.5977 82.8998 22.5 83.2045 22.3047C83.5092 22.1016 83.7553 21.8242 83.9428 21.4727C84.1381 21.1211 84.2748 20.7148 84.353 20.2539C84.4389 19.793 84.4819 19.2969 84.4819 18.7656Z" fill="black"/>
<path d="M95.3222 25.2344C94.3378 25.2344 93.455 25.0781 92.6738 24.7656C91.8925 24.4453 91.2284 24.0039 90.6816 23.4414C90.1425 22.8789 89.7284 22.2266 89.4394 21.4844C89.1503 20.7344 89.0058 19.9375 89.0058 19.0938V18.625C89.0058 17.6641 89.1425 16.7852 89.4159 15.9883C89.6894 15.1914 90.08 14.5 90.5878 13.9141C91.1034 13.3281 91.7284 12.8789 92.4628 12.5664C93.1972 12.2461 94.0253 12.0859 94.9472 12.0859C95.8456 12.0859 96.6425 12.2344 97.3378 12.5312C98.0331 12.8281 98.6152 13.25 99.0839 13.7969C99.5605 14.3438 99.9198 15 100.162 15.7656C100.404 16.5234 100.525 17.3672 100.525 18.2969V19.7031H90.4472V17.4531H97.2089V17.1953C97.2089 16.7266 97.123 16.3086 96.9511 15.9414C96.787 15.5664 96.537 15.2695 96.2011 15.0508C95.8652 14.832 95.4355 14.7227 94.912 14.7227C94.4667 14.7227 94.0839 14.8203 93.7636 15.0156C93.4433 15.2109 93.1816 15.4844 92.9784 15.8359C92.7831 16.1875 92.6347 16.6016 92.5331 17.0781C92.4394 17.5469 92.3925 18.0625 92.3925 18.625V19.0938C92.3925 19.6016 92.4628 20.0703 92.6034 20.5C92.7519 20.9297 92.9589 21.3008 93.2245 21.6133C93.498 21.9258 93.8261 22.168 94.2089 22.3398C94.5995 22.5117 95.0409 22.5977 95.5331 22.5977C96.1425 22.5977 96.7089 22.4805 97.2323 22.2461C97.7636 22.0039 98.2206 21.6406 98.6034 21.1562L100.244 22.9375C99.9784 23.3203 99.6152 23.6875 99.1542 24.0391C98.7011 24.3906 98.1542 24.6797 97.5136 24.9062C96.873 25.125 96.1425 25.2344 95.3222 25.2344Z" fill="black"/>
<path d="M105.342 15.0859V25H101.967V12.3203H105.143L105.342 15.0859ZM109.162 12.2383L109.104 15.3672C108.94 15.3438 108.741 15.3242 108.506 15.3086C108.28 15.2852 108.073 15.2734 107.885 15.2734C107.409 15.2734 106.995 15.3359 106.643 15.4609C106.299 15.5781 106.01 15.7539 105.776 15.9883C105.549 16.2227 105.377 16.5078 105.26 16.8438C105.151 17.1797 105.088 17.5625 105.073 17.9922L104.393 17.7812C104.393 16.9609 104.475 16.207 104.639 15.5195C104.803 14.8242 105.041 14.2188 105.354 13.7031C105.674 13.1875 106.065 12.7891 106.526 12.5078C106.987 12.2266 107.514 12.0859 108.108 12.0859C108.295 12.0859 108.487 12.1016 108.682 12.1328C108.877 12.1562 109.037 12.1914 109.162 12.2383Z" fill="black"/>
<path d="M117.167 17.5117H112.784L112.761 15.0977H116.44C117.089 15.0977 117.62 15.0156 118.034 14.8516C118.448 14.6797 118.757 14.4336 118.96 14.1133C119.171 13.7852 119.276 13.3867 119.276 12.918C119.276 12.3867 119.175 11.957 118.972 11.6289C118.776 11.3008 118.468 11.0625 118.046 10.9141C117.632 10.7656 117.097 10.6914 116.44 10.6914H114.003V25H110.487V7.9375H116.44C117.433 7.9375 118.319 8.03125 119.1 8.21875C119.89 8.40625 120.558 8.69141 121.104 9.07422C121.651 9.45703 122.069 9.94141 122.358 10.5273C122.647 11.1055 122.792 11.793 122.792 12.5898C122.792 13.293 122.632 13.9414 122.311 14.5352C121.999 15.1289 121.503 15.6133 120.823 15.9883C120.151 16.3633 119.272 16.5703 118.186 16.6094L117.167 17.5117ZM117.015 25H111.823L113.194 22.2578H117.015C117.632 22.2578 118.136 22.1602 118.526 21.9648C118.917 21.7617 119.206 21.4883 119.393 21.1445C119.581 20.8008 119.675 20.4062 119.675 19.9609C119.675 19.4609 119.589 19.0273 119.417 18.6602C119.253 18.293 118.987 18.0117 118.62 17.8164C118.253 17.6133 117.768 17.5117 117.167 17.5117H113.78L113.804 15.0977H118.022L118.831 16.0469C119.87 16.0312 120.706 16.2148 121.339 16.5977C121.979 16.9727 122.444 17.4609 122.733 18.0625C123.03 18.6641 123.179 19.3086 123.179 19.9961C123.179 21.0898 122.94 22.0117 122.464 22.7617C121.987 23.5039 121.288 24.0625 120.366 24.4375C119.452 24.8125 118.335 25 117.015 25Z" fill="black"/>
<path d="M124.585 18.7891V18.543C124.585 17.6133 124.718 16.7578 124.984 15.9766C125.249 15.1875 125.636 14.5039 126.144 13.9258C126.652 13.3477 127.277 12.8984 128.019 12.5781C128.761 12.25 129.613 12.0859 130.574 12.0859C131.535 12.0859 132.39 12.25 133.14 12.5781C133.89 12.8984 134.519 13.3477 135.027 13.9258C135.542 14.5039 135.933 15.1875 136.199 15.9766C136.464 16.7578 136.597 17.6133 136.597 18.543V18.7891C136.597 19.7109 136.464 20.5664 136.199 21.3555C135.933 22.1367 135.542 22.8203 135.027 23.4062C134.519 23.9844 133.894 24.4336 133.152 24.7539C132.41 25.0742 131.558 25.2344 130.597 25.2344C129.636 25.2344 128.781 25.0742 128.031 24.7539C127.288 24.4336 126.66 23.9844 126.144 23.4062C125.636 22.8203 125.249 22.1367 124.984 21.3555C124.718 20.5664 124.585 19.7109 124.585 18.7891ZM127.96 18.543V18.7891C127.96 19.3203 128.007 19.8164 128.101 20.2773C128.195 20.7383 128.343 21.1445 128.546 21.4961C128.757 21.8398 129.031 22.1094 129.367 22.3047C129.702 22.5 130.113 22.5977 130.597 22.5977C131.066 22.5977 131.468 22.5 131.804 22.3047C132.14 22.1094 132.41 21.8398 132.613 21.4961C132.816 21.1445 132.964 20.7383 133.058 20.2773C133.16 19.8164 133.21 19.3203 133.21 18.7891V18.543C133.21 18.0273 133.16 17.543 133.058 17.0898C132.964 16.6289 132.812 16.2227 132.601 15.8711C132.398 15.5117 132.128 15.2305 131.792 15.0273C131.456 14.8242 131.05 14.7227 130.574 14.7227C130.097 14.7227 129.691 14.8242 129.355 15.0273C129.027 15.2305 128.757 15.5117 128.546 15.8711C128.343 16.2227 128.195 16.6289 128.101 17.0898C128.007 17.543 127.96 18.0273 127.96 18.543Z" fill="black"/>
<path d="M144.402 12.3203V14.7109H137.019V12.3203H144.402ZM138.848 9.19141H142.223V21.1797C142.223 21.5469 142.269 21.8281 142.363 22.0234C142.465 22.2188 142.613 22.3555 142.808 22.4336C143.004 22.5039 143.25 22.5391 143.547 22.5391C143.758 22.5391 143.945 22.5312 144.109 22.5156C144.281 22.4922 144.426 22.4688 144.543 22.4453L144.555 24.9297C144.265 25.0234 143.953 25.0977 143.617 25.1523C143.281 25.207 142.91 25.2344 142.504 25.2344C141.762 25.2344 141.113 25.1133 140.558 24.8711C140.012 24.6211 139.59 24.2227 139.293 23.6758C138.996 23.1289 138.848 22.4102 138.848 21.5195V9.19141Z" fill="black"/>
<path d="M24.0584 0H9.9416C4.451 0 0 4.45101 0 9.9416V24.0584C0 29.549 4.451 34 9.9416 34H24.0584C29.549 34 34 29.549 34 24.0584V9.9416C34 4.45101 29.549 0 24.0584 0Z" fill="#8647EB"/>
<path d="M16.2163 7.13132L15.8877 6.765L15.5162 7.08778L14.2718 8.16898L13.9498 8.44874L14.1753 8.81079C14.2889 8.99315 14.3252 9.21933 14.277 9.43571L13.8094 8.91333L13.3938 8.44897L15.9257 6.25772L18.3823 8.99591L18.8555 9.52334C18.8226 9.52702 18.789 9.52881 18.7545 9.52881C18.5123 9.52881 18.281 9.43025 18.1125 9.24504C18.1122 9.24473 18.1119 9.24442 18.1117 9.24411L16.2163 7.13132ZM14.0127 9.88533C13.8535 10.0276 13.6485 10.1068 13.4369 10.1068C13.3862 10.1068 13.3209 10.0992 13.2503 10.0841C13.2499 10.0841 13.2496 10.084 13.2493 10.0839L10.4567 9.47239L9.97154 9.36615L9.86202 9.85055L9.5084 11.4145L9.41529 11.8264L9.80572 11.9872C10.0165 12.0739 10.1842 12.2405 10.2738 12.4453L9.58651 12.2944L8.96389 12.1578L9.69986 8.93722L13.3295 9.73515L14.0127 9.88533ZM19.2521 8.61346L19.1922 7.99863L22.5542 7.68918L22.9012 11.3208L22.967 12.0091C22.7317 11.8721 22.5695 11.6283 22.5435 11.3493L22.5434 11.348L22.2782 8.57364L22.2308 8.07694L21.734 8.12338L20.0611 8.27978L19.6437 8.31881L19.6094 8.73665C19.5908 8.9623 19.4863 9.16742 19.3204 9.31321L19.2521 8.61346ZM23.8266 11.5322L24.157 10.9867L27.0603 12.6741L25.1739 15.8022L24.8118 16.4027C24.6975 16.1516 24.7101 15.8522 24.8597 15.6062L24.8607 15.6046L26.2955 13.2246L26.5579 12.7894L26.1185 12.5341L24.6905 11.7045L24.3239 11.4915L24.0538 11.8184C23.9062 11.9971 23.6956 12.1052 23.4684 12.1236L23.8266 11.5322ZM25.7991 16.52L26.3916 16.266L27.728 19.2939L24.3252 20.7411L23.665 21.0219C23.7198 20.7465 23.9065 20.5097 24.1721 20.3967C24.1722 20.3967 24.1724 20.3966 24.1725 20.3966L26.7761 19.2953L27.2432 19.0977L27.039 18.6335L26.393 17.1647L26.2256 16.7841L25.8208 16.8793C25.7393 16.8985 25.669 16.9068 25.5953 16.9068C25.4433 16.9068 25.2955 16.8676 25.165 16.7917L25.7991 16.52ZM24.4137 21.6896L25.0363 21.8263L24.3003 25.0468L20.6707 24.2489L19.976 24.0962C20.1358 23.9512 20.3428 23.8704 20.5565 23.8704C20.6072 23.8704 20.6727 23.878 20.7433 23.8931C20.7436 23.8932 20.7439 23.8933 20.7442 23.8933L23.5367 24.5048L24.0219 24.6111L24.1314 24.1267L24.485 22.5627L24.5781 22.1508L24.1877 21.9901C23.9789 21.9041 23.8124 21.7399 23.7222 21.5378L24.4137 21.6896ZM20.1908 25.0707L20.6064 25.5351L18.0779 27.7233L15.6179 24.9813L15.1441 24.4532C15.175 24.45 15.2066 24.4484 15.2389 24.4484C15.4811 24.4484 15.7124 24.547 15.8809 24.7322C15.8812 24.7325 15.8815 24.7328 15.8817 24.7331L17.7771 26.8459L18.1058 27.2122L18.4772 26.8894L19.7216 25.8082L20.0436 25.5285L19.8181 25.1664C19.7044 24.9839 19.6681 24.7575 19.7165 24.5409L20.1908 25.0707ZM14.7481 25.3638L14.808 25.9786L11.446 26.2881L11.099 22.6632L11.0329 21.9719C11.2647 22.1095 11.4241 22.3515 11.4498 22.6279L11.45 22.6292L11.7152 25.4036L11.7627 25.9003L12.2594 25.8538L13.9322 25.6974L14.3497 25.6584L14.384 25.2406C14.4028 25.0121 14.5097 24.8047 14.6793 24.6586L14.7481 25.3638ZM10.1736 22.4518L9.8432 22.9974L6.93989 21.3099L8.82626 18.1818L9.18621 17.5849C9.29552 17.8338 9.28123 18.1284 9.13369 18.371L9.1327 18.3727L7.69789 20.7527L7.43552 21.1879L7.87493 21.4431L9.30293 22.2727L9.66955 22.4857L9.93958 22.1589C10.0897 21.9771 10.3049 21.8684 10.5364 21.8528L10.1736 22.4518ZM8.20113 17.464L7.60859 17.718L6.27218 14.6902L9.675 13.2429L10.3263 12.9659C10.2688 13.2369 10.0834 13.469 9.82111 13.5806C9.82105 13.5806 9.82098 13.5806 9.82092 13.5806L7.21732 14.6819L6.75024 14.8795L6.95441 15.3437L7.6004 16.8125L7.76782 17.1932L8.17261 17.0979C8.25407 17.0788 8.32438 17.0704 8.39809 17.0704C8.55377 17.0704 8.70515 17.1116 8.83796 17.1911L8.20113 17.464Z" fill="white" stroke="white"/>
</svg>
