<svg width="16" height="16" viewBox="0 0 16 16" fill="none" xmlns="http://www.w3.org/2000/svg">
<g id="cancel 1" clip-path="url(#clip0_58_65)">
<g id="Group">
<g id="Group_2">
<path id="Vector" d="M13.6594 2.34085C10.5379 -0.779957 5.46155 -0.779957 2.34009 2.34085C-0.78003 5.46165 -0.78003 10.5393 2.34009 13.6601C3.90082 15.2202 5.95044 15.9999 8.00009 15.9999C10.0497 15.9999 12.0987 15.2202 13.6594 13.6601C16.7802 10.5394 16.7802 5.46165 13.6594 2.34085ZM11.301 10.3586C11.5617 10.6194 11.5617 11.0409 11.301 11.3017C11.1709 11.4318 11.0002 11.4971 10.8294 11.4971C10.6586 11.4971 10.4879 11.4318 10.3578 11.3017L8.00006 8.94325L5.64295 11.301C5.51223 11.4311 5.34147 11.4964 5.17139 11.4964C5.00065 11.4964 4.82988 11.4311 4.69982 11.301C4.43904 11.0402 4.43904 10.618 4.69982 10.3579L7.05693 8.00015L4.69917 5.64239C4.43839 5.38162 4.43839 4.95942 4.69917 4.6993C4.95929 4.43852 5.38149 4.43852 5.64226 4.6993L8.00003 7.05706L10.3578 4.6993C10.6186 4.43852 11.0401 4.43852 11.3009 4.6993C11.5617 4.95942 11.5617 5.38162 11.3009 5.64239L8.94313 8.00015L11.301 10.3586Z" fill="#959DA3"/>
</g>
</g>
</g>
<defs>
<clipPath id="clip0_58_65">
<rect width="16" height="16" fill="white"/>
</clipPath>
</defs>
</svg>
