<svg width="16" height="16" viewBox="0 0 16 16" fill="none" xmlns="http://www.w3.org/2000/svg">
<g id="wallet-01">
<path id="Icon" d="M14.6667 5.66667H1.33334M1.33334 8.33334H3.69779C4.05792 8.33334 4.23799 8.33334 4.4121 8.36437C4.56665 8.39192 4.71741 8.43757 4.86128 8.50038C5.02337 8.57113 5.17319 8.67101 5.47284 8.87078L5.86052 9.12923C6.16016 9.329 6.30998 9.42888 6.47207 9.49963C6.61594 9.56244 6.76671 9.60809 6.92125 9.63563C7.09537 9.66667 7.27543 9.66667 7.63556 9.66667H8.36446C8.72459 9.66667 8.90465 9.66667 9.07877 9.63563C9.23331 9.60809 9.38408 9.56244 9.52795 9.49963C9.69004 9.42888 9.83986 9.32899 10.1395 9.12923L10.5272 8.87078C10.8268 8.67102 10.9767 8.57113 11.1387 8.50038C11.2826 8.43757 11.4334 8.39192 11.5879 8.36437C11.762 8.33334 11.9421 8.33334 12.3022 8.33334H14.6667M1.33334 4.80001L1.33334 11.2C1.33334 11.9467 1.33334 12.3201 1.47867 12.6053C1.6065 12.8562 1.81047 13.0602 2.06136 13.188C2.34657 13.3333 2.71994 13.3333 3.46668 13.3333L12.5333 13.3333C13.2801 13.3333 13.6534 13.3333 13.9387 13.188C14.1895 13.0602 14.3935 12.8562 14.5214 12.6053C14.6667 12.3201 14.6667 11.9467 14.6667 11.2V4.80001C14.6667 4.05327 14.6667 3.6799 14.5214 3.39469C14.3935 3.1438 14.1895 2.93983 13.9387 2.812C13.6534 2.66667 13.2801 2.66667 12.5333 2.66667L3.46668 2.66667C2.71994 2.66667 2.34657 2.66667 2.06136 2.812C1.81047 2.93983 1.6065 3.1438 1.47867 3.39468C1.33334 3.6799 1.33334 4.05327 1.33334 4.80001Z" stroke="" stroke-width="1.4" stroke-linecap="round" stroke-linejoin="round"/>
</g>
</svg>
